<svg enable-background="new 0 0 512 512" viewBox="0 0 512 512" xmlns="http://www.w3.org/2000/svg"><path d="m243.949 10.229-13.542 82.343h51.179l-13.54-82.342c-2.244-13.64-21.855-13.64-24.097-.001z" fill="#b9d8f4"/><path d="m268.044 10.229c-2.243-13.639-21.854-13.639-24.097 0l-13.541 82.343h25.59l12.795-77.804z" fill="#96c8ef"/><path d="m279.196 84.515h-46.399c-7.387 0-13.431 6.044-13.431 13.432v26.863c0 7.387 6.044 13.431 13.431 13.431h46.399c7.387 0 13.432-6.044 13.432-13.431v-26.864c0-7.387-6.044-13.431-13.432-13.431z" fill="#d1e7f8"/><path d="m244.955 124.809v-26.863c0-7.387 6.044-13.432 13.432-13.432h-25.59c-7.387 0-13.431 6.044-13.431 13.432v26.863c0 7.387 6.044 13.431 13.431 13.431h25.59c-7.388 0-13.432-6.044-13.432-13.431z" fill="#b9d8f4"/><path d="m296.29 110.684h-80.588c-12.088 0-21.979 9.891-21.979 21.979v42.736c0 12.088 9.891 21.979 21.979 21.979h80.588c12.088 0 21.979-9.891 21.979-21.979v-42.736c0-12.088-9.891-21.979-21.979-21.979z" fill="#3535aa"/><path d="m231.613 175.399v-42.736c0-12.088 9.891-21.979 21.978-21.979h-37.888c-12.088 0-21.979 9.891-21.979 21.979v42.736c0 12.088 9.891 21.979 21.979 21.979h37.888c-12.088-.001-21.978-9.891-21.978-21.979z" fill="#2a2a93"/><path d="m342.813 512h-173.633c-26.863 0-48.841-21.979-48.841-48.841v-245.555c0-26.863 21.979-48.841 48.841-48.841h173.632c26.863 0 48.841 21.979 48.841 48.841v245.555c.001 26.862-21.978 48.841-48.84 48.841z" fill="#d1e7f8"/><path d="m178.779 463.159v-245.555c0-26.862 21.979-48.841 48.841-48.841h-58.439c-26.862 0-48.841 21.979-48.841 48.841v245.555c0 26.862 21.979 48.841 48.841 48.841h58.439c-26.863 0-48.841-21.979-48.841-48.841z" fill="#b9d8f4"/><path d="m120.342 400.586h271.319v45.328h-271.319z" fill="#b9d8f4"/><path d="m120.342 400.586h58.439v45.328h-58.439z" fill="#96c8ef"/><path d="m120.342 275.223h271.319v138.271h-271.319z" fill="#ff0c38"/><path d="m120.342 275.223h58.439v138.271h-58.439z" fill="#d80027"/><path d="m170.748 387.79c-4.935 0-12.863-1.096-19.913-6.98-8.487-7.084-12.791-18.66-12.791-34.407 0-17.927 4.644-30.894 13.802-38.538 9.623-8.029 20.477-7.061 23.109-6.678 6.375.553 17.72 4.246 21.594 14.843 1.465 4.008-.595 8.444-4.604 9.909-4.011 1.467-8.445-.595-9.909-4.604-1.446-3.957-9.327-4.859-9.327-4.859-.691-.096-6.36-.703-11.117 3.384-5.296 4.549-8.095 13.727-8.095 26.543 0 10.795 2.503 18.591 7.239 22.543 5.129 4.279 11.866 3.288 11.933 3.278 0 0 11.141.028 11.141-11.633 0-2.419-.208-5.605-1.882-7.058-1.722-1.493-5.016-1.334-5.549-1.246-4.215.72-8.199-2.11-8.916-6.315-.718-4.206 2.109-8.199 6.315-8.916 1.09-.19 10.854-1.63 18.273 4.803 3.443 2.984 7.487 8.731 7.205 19.149-.516 19.052-14.727 26.232-24.561 26.533-.822.112-2.197.249-3.947.249z" fill="#fff"/><path d="m178.778 370.479c-2.954 1.751-6.11 1.744-6.11 1.744-.067.011-6.803 1.002-11.933-3.278-4.737-3.953-7.239-11.748-7.239-22.543 0-12.814 2.8-21.993 8.095-26.543 4.756-4.087 10.425-3.48 11.117-3.384 0 0 3.339.389 6.07 1.749v-16.416c-1.385-.32-2.686-.524-3.823-.623-2.632-.383-13.486-1.352-23.109 6.678-9.159 7.644-13.802 20.611-13.802 38.538 0 15.747 4.304 27.324 12.791 34.407 7.051 5.884 14.979 6.98 19.913 6.98 1.75 0 3.125-.138 3.949-.249 1.298-.04 2.673-.203 4.082-.495v-16.565z" fill="#d1e7f8"/><path d="m173.778 337.056c-4.206.717-7.033 4.71-6.315 8.916.717 4.205 4.701 7.035 8.916 6.315.272-.045 1.264-.107 2.399.04v-15.497c-2.621-.135-4.551.149-5 .226z" fill="#d1e7f8"/><g fill="#fff"><path d="m247.409 387.779h-31.593c-4.268 0-7.726-3.458-7.726-7.726v-71.38c0-4.268 3.458-7.726 7.726-7.726s7.726 3.458 7.726 7.726v63.654h23.866c4.268 0 7.726 3.458 7.726 7.726.001 4.268-3.457 7.726-7.725 7.726z"/><path d="m287.693 387.583c-10.544 0-16.773-4.379-20.142-8.052-7.674-8.367-7.426-19.937-7.265-22.51v-48.349c0-4.268 3.458-7.726 7.726-7.726s7.726 3.458 7.726 7.726v48.624c0 .223-.919 14.827 11.597 14.827 13.045 0 11.53-14.894 11.53-14.894v-48.556c0-4.268 3.458-7.726 7.726-7.726s7.726 3.458 7.726 7.726v48.912c.26 2.817.726 13.736-6.423 21.837-3.287 3.722-9.461 8.161-20.201 8.161z"/><path d="m366.223 372.326h-24.209v-20.238h16.655c4.268 0 7.726-3.458 7.726-7.726s-3.458-7.726-7.726-7.726h-16.655v-20.238h24.209c4.268 0 7.726-3.458 7.726-7.726s-3.458-7.726-7.726-7.726h-31.936c-4.268 0-7.726 3.458-7.726 7.726v71.38c0 4.268 3.458 7.726 7.726 7.726h31.936c4.268 0 7.726-3.458 7.726-7.726s-3.458-7.726-7.726-7.726z"/></g></svg>